<?xml version="1.0" encoding="utf-8"?>
<!-- Generator: Adobe Illustrator 15.1.0, SVG Export Plug-In . SVG Version: 6.00 Build 0)  -->
<!DOCTYPE svg PUBLIC "-//W3C//DTD SVG 1.1//EN" "http://www.w3.org/Graphics/SVG/1.1/DTD/svg11.dtd">
<svg version="1.1" id="Layer_1" xmlns="http://www.w3.org/2000/svg" xmlns:xlink="http://www.w3.org/1999/xlink" x="0px" y="0px"
	 width="475.2px" height="720px" viewBox="0 0 475.2 720" enable-background="new 0 0 475.2 720" xml:space="preserve">
<g>
	<g>
		<polyline fill="none" stroke="#FFFFFF" stroke-width="2" stroke-miterlimit="10" points="136.375,243.843 130.375,243.843 
			127.375,238.646 		"/>
		
			<line fill="none" stroke="#FFFFFF" stroke-width="2" stroke-miterlimit="10" stroke-dasharray="12.9642,12.9642" x1="120.893" y1="227.419" x2="85.241" y2="165.669"/>
		<polyline fill="none" stroke="#FFFFFF" stroke-width="2" stroke-miterlimit="10" points="82,160.056 79,154.859 82,149.663 		"/>
		
			<line fill="none" stroke="#FFFFFF" stroke-width="2" stroke-miterlimit="10" stroke-dasharray="12.9642,12.9642" x1="88.482" y1="138.436" x2="124.133" y2="76.686"/>
		<polyline fill="none" stroke="#FFFFFF" stroke-width="2" stroke-miterlimit="10" points="127.375,71.072 130.375,65.876 
			136.375,65.876 		"/>
		
			<line fill="none" stroke="#FFFFFF" stroke-width="2" stroke-miterlimit="10" stroke-dasharray="12.9641,12.9641" x1="149.339" y1="65.876" x2="220.642" y2="65.876"/>
		<polyline fill="none" stroke="#FFFFFF" stroke-width="2" stroke-miterlimit="10" points="227.124,65.876 233.124,65.876 
			236.124,71.072 		"/>
		
			<line fill="none" stroke="#FFFFFF" stroke-width="2" stroke-miterlimit="10" stroke-dasharray="12.9642,12.9642" x1="242.605" y1="82.299" x2="278.257" y2="144.05"/>
		<polyline fill="none" stroke="#FFFFFF" stroke-width="2" stroke-miterlimit="10" points="281.498,149.663 284.498,154.859 
			281.498,160.056 		"/>
		
			<line fill="none" stroke="#FFFFFF" stroke-width="2" stroke-miterlimit="10" stroke-dasharray="12.9642,12.9642" x1="275.016" y1="171.283" x2="239.364" y2="233.033"/>
		<polyline fill="none" stroke="#FFFFFF" stroke-width="2" stroke-miterlimit="10" points="236.124,238.646 233.124,243.843 
			227.124,243.843 		"/>
		
			<line fill="none" stroke="#FFFFFF" stroke-width="2" stroke-miterlimit="10" stroke-dasharray="12.9641,12.9641" x1="214.159" y1="243.843" x2="142.856" y2="243.843"/>
	</g>
</g>
</svg>
