<?xml version="1.0" encoding="utf-8"?>
<!-- Generator: Adobe Illustrator 15.1.0, SVG Export Plug-In . SVG Version: 6.00 Build 0)  -->
<!DOCTYPE svg PUBLIC "-//W3C//DTD SVG 1.1//EN" "http://www.w3.org/Graphics/SVG/1.1/DTD/svg11.dtd">
<svg version="1.1" id="Layer_1" xmlns="http://www.w3.org/2000/svg" xmlns:xlink="http://www.w3.org/1999/xlink" x="0px" y="0px"
	 width="475.2px" height="720px" viewBox="0 0 475.2 720" enable-background="new 0 0 475.2 720" xml:space="preserve">
<g>
	<path fill="none" stroke="#FFFFFF" stroke-width="9" stroke-miterlimit="10" d="M341.337,290.111
		c-19.633,50.153-76.205,74.895-126.359,55.262s-74.895-76.206-55.262-126.359s76.206-74.896,126.359-55.263
		c0.513,0.201,1.022,0.406,1.529,0.614"/>
	<path fill="none" stroke="#FFFFFF" stroke-width="9" stroke-miterlimit="10" d="M214.796,345.838
		c50.33,19.703,107.305-5.215,127.007-55.545c0.674-1.721-0.258-2.085-0.931-0.365c-19.502,49.816-75.896,74.48-125.712,54.979
		c-49.816-19.5-74.479-75.895-54.979-125.711c19.5-49.816,75.895-74.479,125.711-54.979c0.505,0.198,1.008,0.4,1.51,0.605
		c5.634,2.313,6.123,1.446,0.536-0.86c-0.557-0.23-1.117-0.456-1.682-0.676c-50.33-19.702-107.305,5.216-127.007,55.546
		C139.548,269.162,164.466,326.137,214.796,345.838z"/>
</g>
<polygon fill="#FFFFFF" stroke="#FFFFFF" stroke-miterlimit="10" points="305.099,142.346 274.142,183.504 326.382,190.575 "/>
</svg>
