<?xml version="1.0" encoding="UTF-8" standalone="no"?>
<!-- Created with Inkscape (http://www.inkscape.org/) -->

<svg
   xmlns:dc="http://purl.org/dc/elements/1.1/"
   xmlns:cc="http://creativecommons.org/ns#"
   xmlns:rdf="http://www.w3.org/1999/02/22-rdf-syntax-ns#"
   xmlns:svg="http://www.w3.org/2000/svg"
   xmlns="http://www.w3.org/2000/svg"
   xmlns:sodipodi="http://sodipodi.sourceforge.net/DTD/sodipodi-0.dtd"
   xmlns:inkscape="http://www.inkscape.org/namespaces/inkscape"
   id="svg2"
   version="1.1"
   inkscape:version="0.91 r13725"
   xml:space="preserve"
   width="284.30133"
   height="315.36127"
   viewBox="0 0 284.30133 315.36127"
   sodipodi:docname="restart.svg"><metadata
     id="metadata8"><rdf:RDF><cc:Work
         rdf:about=""><dc:format>image/svg+xml</dc:format><dc:type
           rdf:resource="http://purl.org/dc/dcmitype/StillImage" /><dc:title></dc:title></cc:Work></rdf:RDF></metadata><defs
     id="defs6"><clipPath
       clipPathUnits="userSpaceOnUse"
       id="clipPath16"><path
         d="m 0,720 475.2,0 0,-720 L 0,0 0,720 Z"
         id="path18"
         inkscape:connector-curvature="0" /></clipPath><filter
       style="color-interpolation-filters:sRGB"
       inkscape:label="Drop Shadow"
       id="filter4865"><feFlood
         flood-opacity="0.9"
         flood-color="rgb(0,0,0)"
         result="flood"
         id="feFlood4867" /><feComposite
         in="flood"
         in2="SourceGraphic"
         operator="in"
         result="composite1"
         id="feComposite4869" /><feGaussianBlur
         in="composite1"
         stdDeviation="2"
         result="blur"
         id="feGaussianBlur4871" /><feOffset
         dx="2"
         dy="-2"
         result="offset"
         id="feOffset4873" /><feComposite
         in="SourceGraphic"
         in2="offset"
         operator="over"
         result="composite2"
         id="feComposite4875" /></filter></defs><sodipodi:namedview
     pagecolor="#ffffff"
     bordercolor="#666666"
     borderopacity="1"
     objecttolerance="10"
     gridtolerance="10"
     guidetolerance="10"
     inkscape:pageopacity="0"
     inkscape:pageshadow="2"
     inkscape:window-width="1882"
     inkscape:window-height="1051"
     id="namedview4"
     showgrid="false"
     inkscape:zoom="1.0488889"
     inkscape:cx="201.9145"
     inkscape:cy="-30.570857"
     inkscape:window-x="34"
     inkscape:window-y="0"
     inkscape:window-maximized="1"
     inkscape:current-layer="g10"
     fit-margin-top="0"
     fit-margin-left="0"
     fit-margin-right="0"
     fit-margin-bottom="0" /><g
     id="g10"
     inkscape:groupmode="layer"
     inkscape:label="Untitled-4"
     transform="matrix(1.25,0,0,-1.25,-166.93612,748.34798)"><g
       id="g12"
       style="filter:url(#filter4865)"><g
         id="g14"
         clip-path="url(#clipPath16)"><g
           id="g20"
           transform="translate(341.3369,429.8892)"><path
             d="m 0,0 c -19.633,-50.153 -76.205,-74.895 -126.359,-55.262 -50.154,19.633 -74.895,76.205 -55.262,126.359 19.633,50.153 76.205,74.895 126.359,55.262 0.513,-0.201 1.023,-0.405 1.53,-0.614"
             style="fill:none;stroke:#ffffff;stroke-width:9;stroke-linecap:butt;stroke-linejoin:miter;stroke-miterlimit:10;stroke-dasharray:none;stroke-opacity:1"
             id="path22"
             inkscape:connector-curvature="0" /></g><g
           id="g24"
           transform="translate(214.7959,374.1616)"><path
             d="m 0,0 c 50.33,-19.703 107.305,5.215 127.007,55.545 0.674,1.722 -0.258,2.086 -0.931,0.365 C 106.574,6.094 50.181,-18.57 0.364,0.931 c -49.816,19.501 -74.479,75.895 -54.978,125.711 19.5,49.816 75.894,74.48 125.711,54.979 0.505,-0.198 1.007,-0.4 1.509,-0.605 5.634,-2.313 6.123,-1.446 0.537,0.86 -0.557,0.23 -1.118,0.456 -1.682,0.676 C 21.131,202.254 -35.844,177.336 -55.546,127.006 -75.248,76.677 -50.33,19.702 0,0 Z"
             style="fill:none;stroke:#ffffff;stroke-width:9;stroke-linecap:butt;stroke-linejoin:miter;stroke-miterlimit:10;stroke-dasharray:none;stroke-opacity:1"
             id="path26"
             inkscape:connector-curvature="0" /></g><g
           id="g28"
           transform="translate(305.0986,577.6543)"><path
             d="M 0,0 -30.957,-41.158 21.283,-48.229 0,0 Z"
             style="fill:#ffffff;fill-opacity:1;fill-rule:nonzero;stroke:none"
             id="path30"
             inkscape:connector-curvature="0" /></g><g
           id="g32"
           transform="translate(305.0986,577.6543)"><path
             d="M 0,0 -30.957,-41.158 21.283,-48.229 0,0 Z"
             style="fill:none;stroke:#ffffff;stroke-width:1;stroke-linecap:butt;stroke-linejoin:miter;stroke-miterlimit:10;stroke-dasharray:none;stroke-opacity:1"
             id="path34"
             inkscape:connector-curvature="0" /></g></g></g></g></svg>